<svg xmlns="http://www.w3.org/2000/svg" xmlns:xlink="http://www.w3.org/1999/xlink" contentStyleType="text/css" data-diagram-type="DESCRIPTION" height="851px" preserveAspectRatio="none" style="width:558px;height:851px;background:#FFFFFF;" version="1.1" viewBox="0 0 558 851" width="558px" zoomAndPan="magnify"><title>Figura 18 &#8212; Casos de uso do CRUD implementado</title><defs/><g><g class="title" data-source-line="15"><text fill="#000000" font-family="Arial" font-size="14" font-weight="bold" lengthAdjust="spacing" textLength="339.165" x="102.603" y="23.1318">Figura 18 &#8212; Casos de uso do CRUD implementado</text></g><!--cluster /admin/clientes ? RF0021-RF0028--><g class="cluster" data-entity=".admin.clientes . RF0021-RF0028" data-source-line="19" data-uid="ent0003" id="cluster_.admin.clientes . RF0021-RF0028"><rect fill="#F7F3F5" height="710" rx="2.5" ry="2.5" style="stroke:#181818;stroke-width:1;" width="268" x="270.5" y="117.0986"/><text fill="#000000" font-family="Arial" font-size="14" font-weight="bold" lengthAdjust="spacing" textLength="227.1992" x="290.9004" y="132.2305">/admin/clientes &#8212; RF0021-RF0028</text></g><!--entity Create--><g class="entity" data-entity="Create" data-source-line="20" data-uid="ent0004" id="entity_Create"><ellipse cx="404.4405" cy="253.2691" fill="#F1F1F1" rx="70.9405" ry="23.6705" style="stroke:#181818;stroke-width:0.5;"/><text fill="#000000" font-family="Arial" font-size="14" lengthAdjust="spacing" textLength="105.8271" x="351.5269" y="252.9023">Cadastrar cliente</text><text fill="#000000" font-family="Arial" font-size="14" lengthAdjust="spacing" textLength="49.8066" x="379.5372" y="269.0009">RF0021</text></g><!--entity Read--><g class="entity" data-entity="Read" data-source-line="21" data-uid="ent0005" id="entity_Read"><ellipse cx="404.4055" cy="330.2611" fill="#F1F1F1" rx="71.4055" ry="23.6625" style="stroke:#181818;stroke-width:0.5;"/><text fill="#000000" font-family="Arial" font-size="14" lengthAdjust="spacing" textLength="106.5928" x="351.1091" y="329.9071">Consultar e filtrar</text><text fill="#000000" font-family="Arial" font-size="14" lengthAdjust="spacing" textLength="49.8066" x="379.5022" y="346.0057">RF0024</text></g><!--entity Update--><g class="entity" data-entity="Update" data-source-line="22" data-uid="ent0006" id="entity_Update"><ellipse cx="404.3314" cy="407.0211" fill="#F1F1F1" rx="93.3314" ry="23.4225" style="stroke:#181818;stroke-width:0.5;"/><text fill="#000000" font-family="Arial" font-size="14" lengthAdjust="spacing" textLength="142.4131" x="333.1249" y="407.0535">Alterar dados pessoais</text><text fill="#000000" font-family="Arial" font-size="14" lengthAdjust="spacing" textLength="49.8066" x="379.4281" y="423.1521">RF0022</text></g><!--entity Disable--><g class="entity" data-entity="Disable" data-source-line="23" data-uid="ent0007" id="entity_Disable"><ellipse cx="404.4477" cy="175.9695" fill="#F1F1F1" rx="101.9477" ry="23.3708" style="stroke:#181818;stroke-width:0.5;"/><text fill="#000000" font-family="Arial" font-size="14" lengthAdjust="spacing" textLength="156.3926" x="326.2514" y="176.0859">Inativar com confirma&#231;&#227;o</text><text fill="#000000" font-family="Arial" font-size="14" lengthAdjust="spacing" textLength="49.8066" x="379.5444" y="192.1846">RF0023</text></g><!--entity History--><g class="entity" data-entity="History" data-source-line="24" data-uid="ent0008" id="entity_History"><ellipse cx="404.315" cy="487.0616" fill="#F1F1F1" rx="117.815" ry="25.963" style="stroke:#181818;stroke-width:0.5;"/><text fill="#000000" font-family="Arial" font-size="14" lengthAdjust="spacing" textLength="207.7578" x="300.4361" y="489.8793">Consultar hist&#243;rico demonstrativo</text><text fill="#000000" font-family="Arial" font-size="14" lengthAdjust="spacing" textLength="49.8066" x="379.4117" y="505.978">RF0025</text></g><!--entity Address--><g class="entity" data-entity="Address" data-source-line="25" data-uid="ent0009" id="entity_Address"><ellipse cx="404.7078" cy="567.2019" fill="#F1F1F1" rx="75.2078" ry="23.6033" style="stroke:#181818;stroke-width:0.5;"/><text fill="#000000" font-family="Arial" font-size="14" lengthAdjust="spacing" textLength="112.8408" x="348.2874" y="566.9425">Manter endere&#231;os</text><text fill="#000000" font-family="Arial" font-size="14" lengthAdjust="spacing" textLength="49.8066" x="379.8045" y="583.0411">RF0026</text></g><!--entity Card--><g class="entity" data-entity="Card" data-source-line="26" data-uid="ent0010" id="entity_Card"><ellipse cx="404.4424" cy="645.0871" fill="#F1F1F1" rx="107.9424" ry="23.9885" style="stroke:#181818;stroke-width:0.5;"/><text fill="#000000" font-family="Arial" font-size="14" lengthAdjust="spacing" textLength="173.5166" x="317.6841" y="645.8774">Manter cart&#245;es mascarados</text><text fill="#000000" font-family="Arial" font-size="14" lengthAdjust="spacing" textLength="49.8066" x="379.5391" y="661.9761">RF0027</text></g><!--entity Password--><g class="entity" data-entity="Password" data-source-line="27" data-uid="ent0011" id="entity_Password"><ellipse cx="404.6428" cy="722.9272" fill="#F1F1F1" rx="107.1428" ry="23.8286" style="stroke:#181818;stroke-width:0.5;"/><text fill="#000000" font-family="Arial" font-size="14" lengthAdjust="spacing" textLength="170.4336" x="319.426" y="723.5528">Alterar senha isoladamente</text><text fill="#000000" font-family="Arial" font-size="14" lengthAdjust="spacing" textLength="49.8066" x="379.7394" y="739.6515">RF0028</text></g><!--entity Audit--><g class="entity" data-entity="Audit" data-source-line="28" data-uid="ent0012" id="entity_Audit"><ellipse cx="404.7174" cy="794.3421" fill="#F1F1F1" rx="74.2174" ry="17.2435" style="stroke:#181818;stroke-width:0.5;"/><text fill="#000000" font-family="Arial" font-size="14" lengthAdjust="spacing" textLength="117.5098" x="345.9626" y="798.8914">Consultar auditoria</text></g><!--entity Admin--><g class="entity" data-entity="Admin" data-source-line="18" data-uid="ent0002" id="entity_Admin"><ellipse cx="112.2031" cy="449.5986" fill="#F1F1F1" rx="8" ry="8" style="stroke:#181818;stroke-width:0.5;"/><path d="M112.2031,457.5986 L112.2031,484.5986 M99.2031,465.5986 L125.2031,465.5986 M112.2031,484.5986 L99.2031,499.5986 M112.2031,484.5986 L125.2031,499.5986" fill="none" style="stroke:#181818;stroke-width:0.5;"/><text fill="#000000" font-family="Arial" font-size="14" lengthAdjust="spacing" textLength="150.9648" x="6" y="514.2305">Operador demonstrativo</text><text fill="#000000" font-family="Arial" font-size="14" lengthAdjust="spacing" textLength="212.4063" x="6" y="530.3291">ADMIN_DEMO, sem autentica&#231;&#227;o</text></g><g class="entity" data-entity="GMN22" data-source-line="40" data-uid="ent0023" id="entity_GMN22"><path d="M258,43.0986 L258,101.3945 A0,0 0 0 0 258,101.3945 L400.5,101.3945 L404.5,152.5386 L408.5,101.3945 L551.3711,101.3945 A0,0 0 0 0 551.3711,101.3945 L551.3711,53.0986 L541.3711,43.0986 L258,43.0986 A0,0 0 0 0 258,43.0986" fill="#EDF5F2" style="stroke:#181818;stroke-width:0.5;"/><path d="M541.3711,43.0986 L541.3711,53.0986 L551.3711,53.0986 L541.3711,43.0986" fill="#EDF5F2" style="stroke:#181818;stroke-width:0.5;"/><text fill="#000000" font-family="Arial" font-size="14" lengthAdjust="spacing" textLength="272.3711" x="264" y="61.2305">Cancelar confirma&#231;&#227;o n&#227;o envia requisi&#231;&#227;o.</text><text fill="#000000" font-family="Arial" font-size="14" lengthAdjust="spacing" textLength="260.6953" x="264" y="77.3291">Repetir inativa&#231;&#227;o resulta em conflito 409.</text><text fill="#000000" font-family="Arial" font-size="14" lengthAdjust="spacing" textLength="216.3301" x="264" y="93.4277">Sem exclus&#227;o f&#237;sica ou reativa&#231;&#227;o.</text></g><!--link Admin to Create--><g class="link" data-entity-1="Admin" data-entity-2="Create" data-source-line="30" data-uid="lnk13" id="link_Admin_Create"><path d="M135.21,441.0886 C159.29,396.1186 201.9,329.0386 258,291.0986 C281.36,275.2986 305.0216,267.2706 331.3816,261.8806" fill="none" id="Admin-to-Create" style="stroke:#63424F;stroke-width:1;"/><polygon fill="#63424F" points="337.26,260.6786,327.6411,258.5627,332.3614,261.6803,329.2438,266.4005,337.26,260.6786" style="stroke:#63424F;stroke-width:1;"/></g><!--link Admin to Read--><g class="link" data-entity-1="Admin" data-entity-2="Read" data-source-line="31" data-uid="lnk14" id="link_Admin_Read"><path d="M158.6,440.9086 C185.46,416.0786 221.3,386.8086 258,368.0986 C283.47,355.1186 307.9127,347.5895 334.2527,341.7395" fill="none" id="Admin-to-Read" style="stroke:#63424F;stroke-width:1;"/><polygon fill="#63424F" points="340.11,340.4386,330.4568,338.4851,335.2289,341.5227,332.1913,346.2948,340.11,340.4386" style="stroke:#63424F;stroke-width:1;"/></g><!--link Admin to Update--><g class="link" data-entity-1="Admin" data-entity-2="Update" data-source-line="32" data-uid="lnk15" id="link_Admin_Update"><path d="M218.28,457.1486 C231.64,453.3986 245.14,449.6386 258,446.0986 C284.6,438.7686 308.193,432.4062 333.553,425.6362" fill="none" id="Admin-to-Update" style="stroke:#63424F;stroke-width:1;"/><polygon fill="#63424F" points="339.35,424.0886,329.6228,422.5453,334.5192,425.3783,331.6862,430.2746,339.35,424.0886" style="stroke:#63424F;stroke-width:1;"/></g><!--link Admin to Disable--><g class="link" data-entity-1="Admin" data-entity-2="Disable" data-source-line="33" data-uid="lnk16" id="link_Admin_Disable"><path d="M124.92,440.9386 C143.16,379.7486 183.91,272.6786 258,214.0986 C274.18,201.3086 288.4569,194.4232 308.4469,188.7632" fill="none" id="Admin-to-Disable" style="stroke:#63424F;stroke-width:1;"/><polygon fill="#63424F" points="314.22,187.1286,304.4707,185.7318,309.4091,188.4908,306.6502,193.4292,314.22,187.1286" style="stroke:#63424F;stroke-width:1;"/></g><!--link Admin to History--><g class="link" data-entity-1="Admin" data-entity-2="History" data-source-line="34" data-uid="lnk17" id="link_Admin_History"><path d="M218.29,487.0986 C240.37,487.0986 257.79,487.0986 280.28,487.0986" fill="none" id="Admin-to-History" style="stroke:#63424F;stroke-width:1;"/><polygon fill="#63424F" points="286.28,487.0986,277.28,483.0986,281.28,487.0986,277.28,491.0986,286.28,487.0986" style="stroke:#63424F;stroke-width:1;"/></g><!--link Admin to Address--><g class="link" data-entity-1="Admin" data-entity-2="Address" data-source-line="35" data-uid="lnk18" id="link_Admin_Address"><path d="M218.28,517.0486 C231.64,520.7986 245.14,524.5586 258,528.0986 C287.12,536.1186 313.7824,543.2932 340.6424,550.4532" fill="none" id="Admin-to-Address" style="stroke:#63424F;stroke-width:1;"/><polygon fill="#63424F" points="346.44,551.9986,338.774,545.8154,341.6087,550.7108,336.7134,553.5455,346.44,551.9986" style="stroke:#63424F;stroke-width:1;"/></g><!--link Admin to Card--><g class="link" data-entity-1="Admin" data-entity-2="Card" data-source-line="36" data-uid="lnk19" id="link_Admin_Card"><path d="M159.4,533.2886 C186.23,557.7186 221.79,586.4486 258,605.0986 C278.03,615.4186 295.2329,621.7345 316.9329,627.6745" fill="none" id="Admin-to-Card" style="stroke:#63424F;stroke-width:1;"/><polygon fill="#63424F" points="322.72,629.2586,315.0954,623.0244,317.8974,627.9385,312.9833,630.7405,322.72,629.2586" style="stroke:#63424F;stroke-width:1;"/></g><!--link Admin to Password--><g class="link" data-entity-1="Admin" data-entity-2="Password" data-source-line="37" data-uid="lnk20" id="link_Admin_Password"><path d="M135.21,533.2686 C159.27,578.4086 201.89,645.7886 258,684.0986 C275.06,695.7486 289.6819,702.2665 309.7219,708.0065" fill="none" id="Admin-to-Password" style="stroke:#63424F;stroke-width:1;"/><polygon fill="#63424F" points="315.49,709.6586,307.9393,703.3351,310.6833,708.2819,305.7365,711.0258,315.49,709.6586" style="stroke:#63424F;stroke-width:1;"/></g><!--link Admin to Audit--><g class="link" data-entity-1="Admin" data-entity-2="Audit" data-source-line="38" data-uid="lnk21" id="link_Admin_Audit"><path d="M124.27,533.2286 C141.9,595.2186 182.11,704.2886 258,762.0986 C278.99,778.0886 300.4324,785.4177 325.7524,789.6577" fill="none" id="Admin-to-Audit" style="stroke:#63424F;stroke-width:1;"/><polygon fill="#63424F" points="331.67,790.6486,323.4542,785.2172,326.7387,789.8228,322.133,793.1073,331.67,790.6486" style="stroke:#63424F;stroke-width:1;"/></g><g class="footer" data-source-line="16"><text fill="#888888" font-family="Arial" font-size="10" lengthAdjust="spacing" textLength="334.6045" x="104.8833" y="841.4785">Implementa&#231;&#227;o atual &#8212; 09/09/2026; sem login, ator t&#233;cnico ADMIN_DEMO</text></g><!--SRC=[TLHBRjim4Dth50DdcuzZEuw30WLSEqAzo0S9iWjGZAMnJOGYLPAAcnO5UeZUe8kWYwwAdi0twKawf6oB-HGmR6lutl2zDwJidL0b6YnWYjdTtEXAvICjjO7bGZXAx7RTBZ3NIw7cC4DfuvMSPbX9bshbph4W61g1ylNrQ_6PuB0NBMOIhHqwPyIqSZJ9j0gOTWGfMHdEwTezI093cKCrbx60J1UbLiJj_miP6gENjR6TVhVNwQNHuiXhUFVC_qwQfeFJVWIxh7My11wdtVGe0fvhzn9rEawFqaw4KZedIoLqOwy6rPqlzjh9GkG4L9Jk0GegfcHiueHZVwcOLmRXS01_lts74LfjEMEeh8PSm-ZgPWoYA2KLd0ZFB9bfrcDWigsj7bS_DA2hK8OMxPC3_dJQdVuRi5I0r7EXTXd0kjtgPwP4fc4uFfkSVnYVdbqaacOEd0OZvWi7kV212wqIp3oZTL6IuNqDYogqiiwW4_VwLZKTTiCso0DNJcIrdXQWXM5U29Li1mYj0_ILWqmAXf8DSg_IThjpk1T-1Ytuah1roj0oV8Gv-WqDh1ctgaQ7xYD3o6SwWhCyFfaC9vW9wObhGYyGhWZp23wKd2E3StPdeIHhDGgxPdG2uwRCdsunKTwz5wJzGLKpOOhQy9hN3Roni3YLhsjR2EjMluqVmhD4GuEZqE0zWxHvY1gSeV9Z9vMJeTMZtWZjhvFE3HjuYS_GkDKVZhf0o_-zrJNnk0uHpMkPM58B166rv14KKVI3mBha6xRKJvYDGQnomU85rihyK_8r2MS1zlRURkRM5C9SciTrw4rXasPJsSJJL3O1HDjuPytZLdB42T8KNoUOQkTuedhMZ6w4AYCPHXsD6PJ_8dKlaDzC7ojXHQZl9soZ92SCYFgCr70MvLFXcn_wI4w6tmOd3B_c4dtAP6KzRhRwPVdkWAx0nxFXxoSySF0I_m40]--></g></svg>